<?xml version="1.0" encoding="UTF-8"?>
<svg xmlns="http://www.w3.org/2000/svg" width="48" height="48" viewBox="0 0 447 447">
<path d="M0 0 C147.51 0 295.02 0 447 0 C447 147.51 447 295.02 447 447 C299.49 447 151.98 447 0 447 C0 299.49 0 151.98 0 0 Z " fill="#FEFEFE" transform="translate(0,0)"/>
<path d="M0 0 C1.01765927 1.99107248 2.01577854 3.99218823 3 6 C7.69425818 9.64044512 11.49898442 10.71197245 17.43359375 10.44921875 C21.89803944 9.66777087 25.49817163 7.85908772 29 5 C31.09903303 1.89885818 31.09903303 1.89885818 32 -1 C36.95 -0.505 36.95 -0.505 42 0 C42 0.66 42 1.32 42 2 C42.67546875 2.17015625 43.3509375 2.3403125 44.046875 2.515625 C52.69128508 4.86410635 52.69128508 4.86410635 56 9 C56.99 9.495 56.99 9.495 58 10 C58 10.66 58 11.32 58 12 C58.556875 12.04125 59.11375 12.0825 59.6875 12.125 C62.57529881 13.21768063 63.84769782 14.99194137 65.7109375 17.38671875 C67.13366259 19.2284911 67.13366259 19.2284911 69.5625 21.5625 C77.51238099 29.51238099 82.45461507 38.72871144 83 50 C83.33 50.66 83.66 51.32 84 52 C84.13415472 54.6723621 84.04318541 57.32250488 84 60 C82.71086513 60.67154933 81.41859796 61.33708859 80.125 62 C79.40570313 62.37125 78.68640625 62.7425 77.9453125 63.125 C76 64 76 64 74 64 C74 64.66 74 65.32 74 66 C73.34 66 72.68 66 72 66 C72 66.66 72 67.32 72 68 C71.25878906 68.57492188 70.51757812 69.14984375 69.75390625 69.7421875 C55.78676007 81.19326621 54.87555927 103.0911504 53.0378418 119.58935547 C52.53873678 124.03918048 51.97611847 128.3656305 50.9296875 132.72265625 C47.31649128 148.04363566 51.44328675 162.91504104 56.4140625 177.35546875 C58.36146601 183.01474138 60.14184748 188.72177835 61.90234375 194.44140625 C62.56799186 196.59943268 63.24462254 198.75416826 63.94140625 200.90234375 C64.20824219 201.73894531 64.47507812 202.57554687 64.75 203.4375 C64.97171875 204.11683594 65.1934375 204.79617188 65.421875 205.49609375 C70.62965763 228.05142258 65.62250214 249.87315385 55 270 C54.34 270 53.68 270 53 270 C52.5978125 270.8353125 52.5978125 270.8353125 52.1875 271.6875 C49.65804913 276.61327276 46.97046375 280.11977407 43 284 C41.16361249 286.12592593 39.34960614 288.26798909 37.55078125 290.42578125 C37.03902344 290.94527344 36.52726562 291.46476562 36 292 C35.34 292 34.68 292 34 292 C33.5978125 292.8353125 33.5978125 292.8353125 33.1875 293.6875 C32 296 32 296 30.4375 298.5 C29.14826053 300.7421556 28.46652072 302.48078813 28 305 C27.34 305 26.68 305 26 305 C23.49997736 315.45091431 23.68971313 326.19053559 28.8203125 335.68359375 C30.42346285 338.83150155 30.76693075 341.50396118 31 345 C26.71 345 22.42 345 18 345 C17.67 343.35 17.34 341.7 17 340 C16.34 340 15.68 340 15 340 C9.14608543 329.67256992 9.18888954 316.40007203 11 305 C11.95084493 301.71125285 13.30189719 298.96093244 15 296 C15.46921875 295.07316406 15.9384375 294.14632813 16.421875 293.19140625 C19.08769712 288.01778754 21.61131677 283.91423099 26 280 C26.556875 279.236875 27.11375 278.47375 27.6875 277.6875 C28.120625 277.130625 28.55375 276.57375 29 276 C29.66 276 30.32 276 31 276 C31.26554687 275.46890625 31.53109375 274.9378125 31.8046875 274.390625 C34.203125 269.59375 36.6015625 264.796875 39 260 C39.66 260 40.32 260 41 260 C41.495 256.04 41.495 256.04 42 252 C42.66 252 43.32 252 44 252 C43.69155221 238.39421483 43.10661028 225.28613204 40 212 C39.34 212 38.68 212 38 212 C37.34 209.36 36.68 206.72 36 204 C35.34 204 34.68 204 34 204 C33.4225 202.906875 32.845 201.81375 32.25 200.6875 C30.51876037 197.63489018 28.87049054 196.03712232 26 194 C24.9935725 192.33720673 23.99414593 190.67016516 23 189 C22.2575 188.2575 21.515 187.515 20.75 186.75 C16.4950697 182.4950697 11.92431899 177.77295697 10 172 C9.34 172 8.68 172 8 172 C8 171.34 8 170.68 8 170 C7.01 170 6.02 170 5 170 C3.61876037 168.03277992 2.28511874 166.03131672 1 164 C0.34 163.67 -0.32 163.34 -1 163 C-1.268125 162.2575 -1.53625 161.515 -1.8125 160.75 C-2.86133051 157.8410704 -2.86133051 157.8410704 -5.375 155.6875 C-14.64433689 146.19746461 -16.45482729 130.9021458 -18 118.3125 C-19.10076897 110.07202121 -20.23196415 101.87717668 -22 93.75 C-22.14179688 93.06719971 -22.28359375 92.38439941 -22.4296875 91.6809082 C-23.43328978 87.29399979 -25.06193171 83.59507993 -27.1953125 79.67285156 C-28 78 -28 78 -28 76 C-28.66 76 -29.32 76 -30 76 C-30.433125 75.2575 -30.86625 74.515 -31.3125 73.75 C-33.21290597 70.65304212 -35.06290757 69.11743873 -38 67 C-38.886875 66.34 -39.77375 65.68 -40.6875 65 C-44.93294228 62.4367141 -49.36185679 60.72326269 -54 59 C-54.56798242 52.46820215 -52.5866035 47.92551978 -50 42 C-49.62617188 41.02417969 -49.25234375 40.04835937 -48.8671875 39.04296875 C-45.08084738 29.27621725 -39.88602889 20.96904879 -32 14 C-31.34 14 -30.68 14 -30 14 C-29.79375 13.4225 -29.5875 12.845 -29.375 12.25 C-25.38893984 5.7273561 -15.51003955 2.48501673 -8.75 -0.375 C-5.34629005 -1.14857044 -3.30327979 -1.17449948 0 0 Z " fill="#F9BD6D" transform="translate(206,68)"/>
<path d="M0 0 C11.82535484 9.28102421 12.01286638 26.73882462 13.7097168 40.58276367 C14.00874581 42.82181998 14.00874581 42.82181998 15.03515625 45.62890625 C15.2431696 47.44335934 15.4485405 49.25822472 15.63085938 51.07543945 C16.51940295 59.7477448 18.11965842 67.2556595 23.03515625 74.62890625 C23.03515625 75.61890625 23.03515625 76.60890625 23.03515625 77.62890625 C23.69515625 77.62890625 24.35515625 77.62890625 25.03515625 77.62890625 C27.4667623 80.9957454 28.03515625 82.36240989 28.03515625 86.62890625 C25.36970461 87.28012455 22.70296569 87.92497786 20.03515625 88.56640625 C18.91947266 88.84000977 18.91947266 88.84000977 17.78125 89.11914062 C10.48344968 90.86426679 3.44205267 91.77075613 -4.08984375 91.75390625 C-5.24742187 91.75648438 -6.405 91.7590625 -7.59765625 91.76171875 C-10.80593543 91.6351741 -13.81481829 91.23210262 -16.96484375 90.62890625 C-16.96484375 89.96890625 -16.96484375 89.30890625 -16.96484375 88.62890625 C-17.66609375 88.40203125 -18.36734375 88.17515625 -19.08984375 87.94140625 C-26.81057897 84.41672278 -29.84670152 79.26946044 -32.96484375 71.62890625 C-34.67724924 66.84102049 -35.96484375 62.74061932 -35.96484375 57.62890625 C-36.62484375 57.62890625 -37.28484375 57.62890625 -37.96484375 57.62890625 C-38.47317966 56.38227294 -38.9711552 55.13141238 -39.46484375 53.87890625 C-39.74328125 53.1828125 -40.02171875 52.48671875 -40.30859375 51.76953125 C-40.96484375 49.62890625 -40.96484375 49.62890625 -40.96484375 45.62890625 C-41.62484375 45.62890625 -42.28484375 45.62890625 -42.96484375 45.62890625 C-42.96484375 44.30890625 -42.96484375 42.98890625 -42.96484375 41.62890625 C-43.62484375 41.62890625 -44.28484375 41.62890625 -44.96484375 41.62890625 C-45.39796875 40.43265625 -45.83109375 39.23640625 -46.27734375 38.00390625 C-47.28161203 35.30672858 -48.3594625 32.83966874 -49.65234375 30.25390625 C-50.96484375 27.62890625 -50.96484375 27.62890625 -50.96484375 25.62890625 C-51.58359375 25.42265625 -52.20234375 25.21640625 -52.83984375 25.00390625 C-55.8113802 23.08114737 -56.09509034 20.96296098 -56.96484375 17.62890625 C-57.62484375 17.62890625 -58.28484375 17.62890625 -58.96484375 17.62890625 C-59.62484375 15.64890625 -60.28484375 13.66890625 -60.96484375 11.62890625 C-61.62484375 11.62890625 -62.28484375 11.62890625 -62.96484375 11.62890625 C-62.63484375 10.30890625 -62.30484375 8.98890625 -61.96484375 7.62890625 C-60.97484375 7.62890625 -59.98484375 7.62890625 -58.96484375 7.62890625 C-58.96484375 6.96890625 -58.96484375 6.30890625 -58.96484375 5.62890625 C-58.30484375 5.62890625 -57.64484375 5.62890625 -56.96484375 5.62890625 C-56.96484375 4.96890625 -56.96484375 4.30890625 -56.96484375 3.62890625 C-54.05935493 1.5872114 -52.56342329 0.62890625 -48.96484375 0.62890625 C-48.96484375 -0.03109375 -48.96484375 -0.69109375 -48.96484375 -1.37109375 C-46.73720387 -2.18799552 -44.50789515 -2.99971247 -42.27734375 -3.80859375 C-41.65150391 -4.03869141 -41.02566406 -4.26878906 -40.38085938 -4.50585938 C-25.71570029 -9.80374407 -12.80556169 -8.93588898 0 0 Z " fill="#F9CB89" transform="translate(160.96484375,146.37109375)"/>
<path d="M0 0 C0 0.66 0 1.32 0 2 C1.423125 1.9690625 1.423125 1.9690625 2.875 1.9375 C6 2 6 2 8 3 C8 3.66 8 4.32 8 5 C9.32 5.33 10.64 5.66 12 6 C12 6.66 12 7.32 12 8 C12.598125 8.268125 13.19625 8.53625 13.8125 8.8125 C17.60550459 10.87155963 17.60550459 10.87155963 19 13 C19 18.96727026 16.98579375 21.73612762 13 26 C9.32560906 30.01886509 7.36982265 34.31296866 5.21875 39.2578125 C4.2320117 41.47797369 3.17048718 43.56363214 2 45.6875 C0.00573576 49.58757321 -1.22909189 53.69778518 -2.5 57.875 C-6.6394899 71.42030496 -11.42990341 85.81328196 -24.01171875 93.85546875 C-31.5481266 96.74196221 -40.68867186 96.20650398 -48 93 C-50.66572015 92.50686503 -53.29815717 92.27476368 -56 92 C-56.33 88.7 -56.66 85.4 -57 82 C-57.66 82 -58.32 82 -59 82 C-59 74.08 -59 66.16 -59 58 C-58.34 58 -57.68 58 -57 58 C-56.95101563 57.2471875 -56.90203125 56.494375 -56.8515625 55.71875 C-54.11365724 16.82161325 -54.11365724 16.82161325 -44 6 C-41.8125 4.765625 -41.8125 4.765625 -40 4 C-40 3.34 -40 2.68 -40 2 C-39.319375 1.731875 -38.63875 1.46375 -37.9375 1.1875 C-35.85969166 0.34753492 -33.81406423 -0.57416646 -31.796875 -1.55078125 C-22.10376279 -5.69445021 -9.64843474 -3.06995651 0 0 Z " fill="#FACA88" transform="translate(328,142)"/>
<path d="M0 0 C8.05653381 1.07934892 15.57374958 0.88560999 23.61523438 -0.15991211 C25.74414062 -0.28100586 25.74414062 -0.28100586 28.74414062 0.71899414 C30.37605386 3.9828206 30.29277051 6.12242047 29.74414062 9.71899414 C27.35477828 11.94597264 24.69142781 13.3456509 21.74414062 14.71899414 C20.97585937 15.08766602 20.20757812 15.45633789 19.41601562 15.83618164 C10.8446586 18.6682382 1.1551374 16.79750133 -7.27148438 14.39477539 C-14.89080223 12.66945865 -21.94652862 13.18006785 -29.25585938 15.71899414 C-32.75900422 16.19139721 -36.05487802 16.35701549 -39.25585938 14.65649414 C-40.84019556 11.58684279 -40.61834386 9.10218271 -40.25585938 5.71899414 C-32.49618341 -5.19305018 -11.38053943 -1.54615214 0 0 Z " fill="#FCFBF7" transform="translate(226.255859375,87.281005859375)"/>
<path d="M0 0 C2.16926659 3.25389988 2.24080049 4.13395957 2.1953125 7.88671875 C2.18886719 8.82451172 2.18242187 9.76230469 2.17578125 10.72851562 C2.15902344 11.70498047 2.14226562 12.68144531 2.125 13.6875 C2.11597656 14.67556641 2.10695312 15.66363281 2.09765625 16.68164062 C2.0740843 19.12133765 2.04118022 21.56054697 2 24 C2.62438965 24.12947021 3.2487793 24.25894043 3.89208984 24.39233398 C6.79784339 25.23000141 7.53902702 26.38727838 9 29 C9.7435212 33.89120318 9.58997258 38.52506855 7.75 43.125 C5.8312917 45.18075889 4.76813126 45.71364159 2 46 C2 46.66 2 47.32 2 48 C-1.72916397 49.86458199 -5.93961304 49.56048286 -10 49 C-13.8995844 47.01850386 -16.38550253 44.03624368 -18 40 C-18.66530503 34.80907351 -18.80414331 30.41418306 -16.1875 25.8125 C-14 24 -14 24 -11 24 C-11.00523682 23.37955811 -11.01047363 22.75911621 -11.01586914 22.11987305 C-11.03665466 19.30909233 -11.04966517 16.49832779 -11.0625 13.6875 C-11.07087891 12.71103516 -11.07925781 11.73457031 -11.08789062 10.72851562 C-11.09111328 9.79072266 -11.09433594 8.85292969 -11.09765625 7.88671875 C-11.10289307 7.02264404 -11.10812988 6.15856934 -11.11352539 5.26831055 C-11 3 -11 3 -10 0 C-6.23918426 -1.25360525 -3.84551868 -0.83902226 0 0 Z " fill="#FCFDF9" transform="translate(226,128)"/>
<path d="M0 0 C0.88042969 0.00257813 1.76085937 0.00515625 2.66796875 0.0078125 C3.54066406 0.00523437 4.41335937 0.00265625 5.3125 0 C7.6420109 0.12166416 9.6248489 0.47766541 11.85546875 1.1328125 C11.85546875 1.7928125 11.85546875 2.4528125 11.85546875 3.1328125 C14.49451246 4.54658591 16.92667504 5.50521385 19.85546875 6.1328125 C19.85546875 6.7928125 19.85546875 7.4528125 19.85546875 8.1328125 C20.84546875 8.4628125 21.83546875 8.7928125 22.85546875 9.1328125 C31.01540207 17.31129112 32.5343588 27.91513651 33.02734375 38.99609375 C32.85546875 42.1328125 32.85546875 42.1328125 31.16796875 44.1328125 C28.2990734 45.3734159 26.79905199 45.03224071 23.85546875 44.1328125 C21.88336736 38.84399515 20.64992313 34.05843 19.98046875 28.4453125 C19.1960475 22.76158227 18.11279803 19.96440885 13.85546875 16.1328125 C13.19546875 15.8028125 12.53546875 15.4728125 11.85546875 15.1328125 C11.85546875 14.4728125 11.85546875 13.8128125 11.85546875 13.1328125 C4.43046875 12.1428125 4.43046875 12.1428125 -3.14453125 11.1328125 C-3.2421875 3.41796875 -3.2421875 3.41796875 -3.14453125 1.1328125 C-2.14453125 0.1328125 -2.14453125 0.1328125 0 0 Z " fill="#FBFBF4" transform="translate(132.14453125,151.8671875)"/>
<path d="M0 0 C2.25 0.0625 2.25 0.0625 5 1 C9.12826773 5.57456695 9.40346658 10.0534655 9.5 16.0625 C9.51844971 16.74707275 9.53689941 17.43164551 9.5559082 18.13696289 C9.49429337 23.19242977 8.19209481 26.12810722 5 30 C2.75 30.875 2.75 30.875 1 31 C-4.43856485 24.68424727 -4.32644336 19.70257913 -4.30078125 11.5078125 C-3.89477129 6.77278727 -2.5397237 3.96831828 0 0 Z " fill="#CD623A" transform="translate(219,34)"/>
<path d="M0 0 C-1.11375 0.391875 -2.2275 0.78375 -3.375 1.1875 C-6.31960666 2.42482967 -6.85882545 2.73606497 -8.4375 5.6875 C-8.623125 6.450625 -8.80875 7.21375 -9 8 C-4.545 7.505 -4.545 7.505 0 7 C0 7.66 0 8.32 0 9 C3.465 8.505 3.465 8.505 7 8 C7 8.99 7 9.98 7 11 C2.05798092 12.97680763 -1.75149341 13.43020546 -7 13 C-9 11.9375 -9 11.9375 -10 10 C-10.65044248 3.92920354 -10.65044248 3.92920354 -8.6875 1.125 C-5.49836354 -1.00109097 -3.53515605 -1.09711739 0 0 Z " fill="#FAF4E5" transform="translate(196,90)"/>
<path d="M0 0 C0.99 0 1.98 0 3 0 C5.32011034 3.66430125 5.26783151 6.85435257 5.25 11.125 C5.25773438 12.98511719 5.25773438 12.98511719 5.265625 14.8828125 C4.91765734 18.96631539 2.7762279 20.2237721 0 23 C-0.66 22.67 -1.32 22.34 -2 22 C-1.67402832 21.42926758 -1.34805664 20.85853516 -1.01220703 20.27050781 C0.07403796 17.83392354 0.2331027 16.31718893 0.1953125 13.671875 C0.18886719 12.87265625 0.18242187 12.0734375 0.17578125 11.25 C0.15902344 10.425 0.14226562 9.6 0.125 8.75 C0.11146484 7.48929688 0.11146484 7.48929688 0.09765625 6.203125 C0.07415817 4.13529396 0.03828908 2.06761005 0 0 Z " fill="#F5F2EB" transform="translate(227,40)"/>
<path d="M0 0 C2 1 2 1 3.2890625 4.67578125 C3.74255075 6.2189751 4.18749501 7.7646989 4.625 9.3125 C4.85445313 10.08529297 5.08390625 10.85808594 5.3203125 11.65429688 C6.38669155 15.34536484 7 18.09381764 7 22 C5.35 22 3.7 22 2 22 C2 19.36 2 16.72 2 14 C1.34 14 0.68 14 0 14 C-0.76379333 10.26589925 -1.09361839 7.64539462 0 4 C0 2.68 0 1.36 0 0 Z " fill="#F5C07C" transform="translate(265,258)"/>
<path d="M0 0 C1.47265625 1.01171875 1.47265625 1.01171875 3 3 C3.32731414 5.70402761 3.46442665 8.11249117 3.4375 10.8125 C3.45748047 11.51181641 3.47746094 12.21113281 3.49804688 12.93164062 C3.49327843 18.029105 2.34967546 20.9692445 -1 25 C-3.25 25.875 -3.25 25.875 -5 26 C-4.34 24.35 -3.68 22.7 -3 21 C-2.01 21.33 -1.02 21.66 0 22 C0 17.05 0 12.1 0 7 C0.66 7 1.32 7 2 7 C1.34 6.01 0.68 5.02 0 4 C0 2.68 0 1.36 0 0 Z " fill="#C6653E" transform="translate(225,39)"/>
<path d="M0 0 C0.66 0 1.32 0 2 0 C2.33 9.24 2.66 18.48 3 28 C2.67 26.68 2.34 25.36 2 24 C1.34 24 0.68 24 0 24 C0 16.08 0 8.16 0 0 Z " fill="#F4D8AB" transform="translate(269,200)"/>
<path d="M0 0 C0.66 0 1.32 0 2 0 C2.33 2.31 2.66 4.62 3 7 C3.99 7.33 4.98 7.66 6 8 C8.03553431 11.05330147 8.24129596 11.58865171 8.125 15 C8.10695312 15.680625 8.08890625 16.36125 8.0703125 17.0625 C8.03550781 18.0215625 8.03550781 18.0215625 8 19 C8 19.99 8 20.98 8 22 C2.81995609 15.5471453 0.60432706 8.15841526 0 0 Z " fill="#F3C37C" transform="translate(191,200)"/>
<path d="M0 0 C3.22426488 3.22426488 3.39638647 3.64644366 3.73046875 7.88671875 C3.81103516 8.82451172 3.89160156 9.76230469 3.97460938 10.72851562 C4.04486328 11.70498047 4.11511719 12.68144531 4.1875 13.6875 C4.26935547 14.67556641 4.35121094 15.66363281 4.43554688 16.68164062 C4.63583026 19.12038537 4.82347846 21.55943916 5 24 C3.68 23.67 2.36 23.34 1 23 C0.67 15.41 0.34 7.82 0 0 Z " fill="#F2C98D" transform="translate(227,129)"/>
<path d="M0 0 C0.33 0.66 0.66 1.32 1 2 C0.51789063 2.53109375 0.03578125 3.0621875 -0.4609375 3.609375 C-1.09257812 4.31578125 -1.72421875 5.0221875 -2.375 5.75 C-3.00148437 6.44609375 -3.62796875 7.1421875 -4.2734375 7.859375 C-6.05943781 9.90573386 -6.05943781 9.90573386 -7.0625 12.21875 C-7.371875 12.8065625 -7.68125 13.394375 -8 14 C-10.625 14.75 -10.625 14.75 -13 15 C-11.40907948 10.86360664 -8.39525082 7.76786752 -5 5 C-4.34 5 -3.68 5 -3 5 C-2.690625 4.360625 -2.38125 3.72125 -2.0625 3.0625 C-1 1 -1 1 0 0 Z " fill="#FAF3DE" transform="translate(255,345)"/>
<path d="M0 0 C0 2 0 2 -1.25 3.5625 C-3.17692483 5.14533111 -4.56795851 5.5806825 -7 6 C-6.67 7.32 -6.34 8.64 -6 10 C-6.99 10.495 -6.99 10.495 -8 11 C-8 10.34 -8 9.68 -8 9 C-9.98 9.66 -11.96 10.32 -14 11 C-12.71937515 9.2925002 -11.38232443 7.62626404 -10 6 C-9.34 6 -8.68 6 -8 6 C-8 5.34 -8 4.68 -8 4 C-7.34 4 -6.68 4 -6 4 C-6 3.34 -6 2.68 -6 2 C-2.25 0 -2.25 0 0 0 Z " fill="#FBF0DD" transform="translate(286,130)"/>
<path d="M0 0 C2.4312207 4.27894843 2.76325829 8.16307245 2 13 C0 15.5625 0 15.5625 -2 17 C-2.21824777 10.9981863 -1.5056904 5.80766296 0 0 Z " fill="#F9F2E3" transform="translate(262,163)"/>
<path d="M0 0 C0.66 0 1.32 0 2 0 C2.33 0.99 2.66 1.98 3 3 C1.68 3.33 0.36 3.66 -1 4 C-1 5.32 -1 6.64 -1 8 C-1.66 8 -2.32 8 -3 8 C-3.66 10.31 -4.32 12.62 -5 15 C-5.99 15 -6.98 15 -8 15 C-8 14.34 -8 13.68 -8 13 C-7.34 13 -6.68 13 -6 13 C-5.9071875 11.7315625 -5.9071875 11.7315625 -5.8125 10.4375 C-4.81850182 6.23212309 -2.97837736 3.13611074 0 0 Z " fill="#FAECD6" transform="translate(240,360)"/>
<path d="M0 0 C0.87269531 -0.01417969 1.74539062 -0.02835938 2.64453125 -0.04296875 C5.1875 0.1875 5.1875 0.1875 9.1875 2.1875 C4.5675 2.1875 -0.0525 2.1875 -4.8125 2.1875 C-4.1525 4.4975 -3.4925 6.8075 -2.8125 9.1875 C-1.1625 9.5175 0.4875 9.8475 2.1875 10.1875 C2.1875 10.5175 2.1875 10.8475 2.1875 11.1875 C-0.4525 11.1875 -3.0925 11.1875 -5.8125 11.1875 C-5.83938151 9.54175434 -5.85884123 7.89588587 -5.875 6.25 C-5.88660156 5.33347656 -5.89820313 4.41695312 -5.91015625 3.47265625 C-5.73247176 -0.68516078 -3.65630081 0.02676648 0 0 Z " fill="#F8E3C2" transform="translate(134.8125,151.8125)"/>
<path d="M0 0 C1.80591186 0.45309616 3.59067698 0.98953836 5.3671875 1.546875 C5.3671875 1.876875 5.3671875 2.206875 5.3671875 2.546875 C3.93183909 2.7695496 2.49373225 2.97449406 1.0546875 3.171875 C0.25417969 3.28789063 -0.54632813 3.40390625 -1.37109375 3.5234375 C-3.6328125 3.546875 -3.6328125 3.546875 -6.6328125 1.546875 C-9.60730858 1.30468185 -9.60730858 1.30468185 -12.8203125 1.421875 C-13.90699219 1.43992187 -14.99367187 1.45796875 -16.11328125 1.4765625 C-16.94472656 1.49976562 -17.77617187 1.52296875 -18.6328125 1.546875 C-13.34186275 -1.98042484 -6.13286786 -1.05550841 0 0 Z " fill="#F1CE97" transform="translate(218.6328125,100.453125)"/>
<path d="M0 0 C0.99 0.66 1.98 1.32 3 2 C3.80782891 6.91825246 3.59817529 11.61332091 1.625 16.1875 C0.820625 17.0846875 0.820625 17.0846875 0 18 C-0.66 18 -1.32 18 -2 18 C-1.67 16.68 -1.34 15.36 -1 14 C-0.34 14 0.32 14 1 14 C0.67 9.38 0.34 4.76 0 0 Z " fill="#FAF5E8" transform="translate(232,155)"/>
<path d="M0 0 C0.91058531 3.07322544 1.08886184 5.80097361 1 9 C0.360625 9.12375 -0.27875 9.2475 -0.9375 9.375 C-1.618125 9.58125 -2.29875 9.7875 -3 10 C-3.33 10.66 -3.66 11.32 -4 12 C-4.66 12 -5.32 12 -6 12 C-4.68139111 7.38486888 -2.78644563 3.90102388 0 0 Z " fill="#F2C37F" transform="translate(165,92)"/>
<path d="M0 0 C2.35171131 0.59861742 4.6859378 1.26924352 7 2 C7.33 2.66 7.66 3.32 8 4 C6.02 4 4.04 4 2 4 C1.54625 4.969375 1.0925 5.93875 0.625 6.9375 C-1 10 -1 10 -3 11 C-2.34 9.35 -1.68 7.7 -1 6 C-1.66 6 -2.32 6 -3 6 C-1.125 1.125 -1.125 1.125 0 0 Z " fill="#F8F1DD" transform="translate(236,64)"/>
<path d="M0 0 C0.33 0 0.66 0 1 0 C1.13277344 0.92683594 1.26554688 1.85367188 1.40234375 2.80859375 C1.57894531 4.00613281 1.75554687 5.20367187 1.9375 6.4375 C2.11152344 7.63246094 2.28554687 8.82742187 2.46484375 10.05859375 C2.68985213 12.87955676 2.68985213 12.87955676 4 14 C4.07258946 16.18639453 4.08373783 18.37500389 4.0625 20.5625 C4.05347656 21.76003906 4.04445312 22.95757812 4.03515625 24.19140625 C4.02355469 25.11824219 4.01195312 26.04507813 4 27 C3.67 27 3.34 27 3 27 C2.49129467 23.813827 1.99463419 20.62588525 1.5 17.4375 C1.35691406 16.54224609 1.21382812 15.64699219 1.06640625 14.72460938 C0.30107612 9.74996352 -0.16568252 5.03260643 0 0 Z " fill="#F0C588" transform="translate(187,173)"/>
<path d="M0 0 C2.42130331 2.42130331 2.52840504 3.80111377 3.125 7.125 C3.29257812 8.03507813 3.46015625 8.94515625 3.6328125 9.8828125 C3.81457031 10.93082031 3.81457031 10.93082031 4 12 C3.01 12 2.02 12 1 12 C0.03929566 9.11788698 -0.10581883 7.30149956 -0.0625 4.3125 C-0.05347656 3.50425781 -0.04445313 2.69601563 -0.03515625 1.86328125 C-0.02355469 1.24839844 -0.01195312 0.63351563 0 0 Z M-2 9 C-1.34 9.33 -0.68 9.66 0 10 C-0.33 10.66 -0.66 11.32 -1 12 C-1.66 12 -2.32 12 -3 12 C-2.67 11.01 -2.34 10.02 -2 9 Z " fill="#F0C17B" transform="translate(261,244)"/>
<path d="M0 0 C0.66 0.33 1.32 0.66 2 1 C0.95285076 2.32477959 -0.11344669 3.63443746 -1.1875 4.9375 C-1.77917969 5.66839844 -2.37085938 6.39929688 -2.98046875 7.15234375 C-5.32505203 9.29738803 -6.88391498 9.66094412 -10 10 C-9.34 9.01 -8.68 8.02 -8 7 C-7.34 7 -6.68 7 -6 7 C-5.7525 6.401875 -5.505 5.80375 -5.25 5.1875 C-3.83629988 2.71352479 -2.34944617 1.56629745 0 0 Z " fill="#F2C686" transform="translate(182,75)"/>
<path d="M0 0 C2 2 2 2 2.1953125 4.8203125 C2.16050781 6.45613281 2.16050781 6.45613281 2.125 8.125 C2.10695313 9.22070312 2.08890625 10.31640625 2.0703125 11.4453125 C2.04710937 12.28835937 2.02390625 13.13140625 2 14 C-0.3797234 11.6202766 -0.58749232 10.25575205 -1.25 7 C-1.53617187 5.6696875 -1.53617187 5.6696875 -1.828125 4.3125 C-1.88484375 3.549375 -1.9415625 2.78625 -2 2 C-1.34 1.34 -0.68 0.68 0 0 Z " fill="#FAF9EF" transform="translate(261,232)"/>
<path d="M0 0 C0.99 0.33 1.98 0.66 3 1 C2.34 1 1.68 1 1 1 C1 1.66 1 2.32 1 3 C-0.65788785 4.34423339 -2.32576317 5.67618483 -4 7 C-5.76323505 9.12603185 -5.76323505 9.12603185 -7 11 C-7.125 5.25 -7.125 5.25 -6 3 C-4.68 3 -3.36 3 -2 3 C-2 2.34 -2 1.68 -2 1 C-1.34 0.67 -0.68 0.34 0 0 Z " fill="#F5C27A" transform="translate(277,133)"/>
<path d="M0 0 C0.33 0 0.66 0 1 0 C0.85936865 2.29199177 0.71234057 4.58359186 0.5625 6.875 C0.48128906 8.15117187 0.40007812 9.42734375 0.31640625 10.7421875 C0 14 0 14 -1 16 C-1.66 16 -2.32 16 -3 16 C-2.40984815 10.49191603 -1.43336231 5.35121931 0 0 Z " fill="#F4D7AD" transform="translate(277,160)"/>
<path d="M0 0 C-0.33 0.99 -0.66 1.98 -1 3 C-6.94 3 -12.88 3 -19 3 C-19 2.67 -19 2.34 -19 2 C-16.58374679 1.66340751 -14.16707192 1.33061612 -11.75 1 C-10.72712891 0.85691406 -10.72712891 0.85691406 -9.68359375 0.7109375 C-6.40628012 0.2654774 -3.31615847 0 0 0 Z " fill="#FAF3E2" transform="translate(251,87)"/>
<path d="M0 0 C3.3 0 6.6 0 10 0 C10 0.99 10 1.98 10 3 C6.37 3 2.74 3 -1 3 C-0.67 2.01 -0.34 1.02 0 0 Z " fill="#F5BA6F" transform="translate(226,409)"/>
<path d="M0 0 C0 1.65 0 3.3 0 5 C-4.62 5 -9.24 5 -14 5 C-14 4.67 -14 4.34 -14 4 C-10.7 3.67 -7.4 3.34 -4 3 C-4 2.34 -4 1.68 -4 1 C-2 0 -2 0 0 0 Z " fill="#F0C789" transform="translate(232,173)"/>
<path d="M0 0 C0.33 0 0.66 0 1 0 C1.12375 1.11375 1.2475 2.2275 1.375 3.375 C1.6465813 7.03103677 1.6465813 7.03103677 4 9 C6.65537372 9.56520003 9.29144713 9.73788198 12 10 C12 10.33 12 10.66 12 11 C10.56260487 11.02712066 9.12506137 11.04645067 7.6875 11.0625 C6.48673828 11.07990234 6.48673828 11.07990234 5.26171875 11.09765625 C3 11 3 11 0 10 C-0.19412181 8.52168779 -0.38012131 7.04230684 -0.5625 5.5625 C-0.66691406 4.73878906 -0.77132812 3.91507812 -0.87890625 3.06640625 C-0.91886719 2.38449219 -0.95882812 1.70257813 -1 1 C-0.67 0.67 -0.34 0.34 0 0 Z " fill="#F0C27B" transform="translate(185,93)"/>
<path d="M0 0 C0.33 0 0.66 0 1 0 C0.58525633 5.28798182 -0.35224614 8.11690718 -4 12 C-4.99 11.67 -5.98 11.34 -7 11 C-6.34 9.68 -5.68 8.36 -5 7 C-4.01 7.33 -3.02 7.66 -2 8 C-1.855625 7.236875 -1.71125 6.47375 -1.5625 5.6875 C-1 3 -1 3 0 0 Z " fill="#C77153" transform="translate(227,53)"/>
<path d="M0 0 C0.33 0 0.66 0 1 0 C1.125 5.75 1.125 5.75 0 8 C-0.66 8 -1.32 8 -2 8 C-2 9.32 -2 10.64 -2 12 C-2.99 12 -3.98 12 -5 12 C-3.68938409 7.76570244 -2.05643741 3.92592596 0 0 Z " fill="#F0CE94" transform="translate(245,328)"/>
<path d="M0 0 C0.99 0.33 1.98 0.66 3 1 C3 1.66 3 2.32 3 3 C4.32 2.01 5.64 1.02 7 0 C7.33 1.65 7.66 3.3 8 5 C7.01 5 6.02 5 5 5 C4.67 5.99 4.34 6.98 4 8 C3.34 7.67 2.68 7.34 2 7 C1.26924352 4.6859378 0.59861742 2.35171131 0 0 Z " fill="#CE592F" transform="translate(217,56)"/>
<path d="M0 0 C0.625 1.8125 0.625 1.8125 1 4 C-1.40436026 7.60654039 -2.94679607 7.85452932 -7 9 C-5.625 6.5 -5.625 6.5 -4 4 C-3.34 4 -2.68 4 -2 4 C-1.34 2.68 -0.68 1.36 0 0 Z " fill="#F4CE98" transform="translate(239,340)"/>
<path d="M0 0 C-1 3 -1 3 -3 4 C-5.55157655 4.0716735 -8.07472971 4.09308442 -10.625 4.0625 C-11.33140625 4.05798828 -12.0378125 4.05347656 -12.765625 4.04882812 C-14.51045275 4.03703875 -16.255237 4.01910324 -18 4 C-18 3.67 -18 3.34 -18 3 C-17.09636719 2.95101562 -16.19273437 2.90203125 -15.26171875 2.8515625 C-14.08222656 2.77679688 -12.90273438 2.70203125 -11.6875 2.625 C-9.92986328 2.52058594 -9.92986328 2.52058594 -8.13671875 2.4140625 C-4.8865206 1.98502015 -3.12552161 0 0 0 Z " fill="#FCF2DC" transform="translate(306,234)"/>
<path d="M0 0 C0.66 0.33 1.32 0.66 2 1 C1.67 1.99 1.34 2.98 1 4 C-3.62 4.33 -8.24 4.66 -13 5 C-9.52630934 3.26315467 -7.92380063 2.69915888 -4.25 2.375 C-3.05117187 2.26285156 -3.05117187 2.26285156 -1.828125 2.1484375 C-1.22484375 2.09945312 -0.6215625 2.05046875 0 2 C0 1.34 0 0.68 0 0 Z " fill="#F7E9CF" transform="translate(189,231)"/>
<path d="M0 0 C2 3 2 3 1.625 5.1875 C1.41875 5.785625 1.2125 6.38375 1 7 C0.34 7 -0.32 7 -1 7 C-1.99 7.33 -2.98 7.66 -4 8 C-2.87548273 5.0280615 -1.77706209 2.66559313 0 0 Z " fill="#FAF0DE" transform="translate(318,218)"/>
<path d="M0 0 C1.25127906 3.54667178 0.72285053 5.72253438 -0.4375 9.25 C-0.72496094 10.14203125 -1.01242187 11.0340625 -1.30859375 11.953125 C-1.53675781 12.62859375 -1.76492188 13.3040625 -2 14 C-3.15431591 10.05102453 -2.80958981 7.04794905 -2 3 C-1.34 2.01 -0.68 1.02 0 0 Z " fill="#F6E3BE" transform="translate(323,200)"/>
<path d="M0 0 C-3.99560608 2.83022097 -7.42737323 1.76210446 -12 1 C-7.62136392 -1.91909072 -4.60643295 -2.90034667 0 0 Z " fill="#F6F7F2" transform="translate(252,100)"/>
<path d="M0 0 C0.99 0.33 1.98 0.66 3 1 C3.33 1.99 3.66 2.98 4 4 C-1.28 3.67 -6.56 3.34 -12 3 C-12 2.67 -12 2.34 -12 2 C-8.04 2 -4.08 2 0 2 C0 1.34 0 0.68 0 0 Z " fill="#FEF8EE" transform="translate(216,97)"/>
<path d="M0 0 C1.670625 0.061875 1.670625 0.061875 3.375 0.125 C3.705 1.445 4.035 2.765 4.375 4.125 C-3.375 3.25 -3.375 3.25 -5.625 2.125 C-3.625 0.125 -3.625 0.125 0 0 Z " fill="#F3C284" transform="translate(222.625,124.875)"/>
<path d="M0 0 C1.32 0.33 2.64 0.66 4 1 C4.1875 3.375 4.1875 3.375 4 6 C3.01 6.66 2.02 7.32 1 8 C0.67 5.36 0.34 2.72 0 0 Z " fill="#F8F8EC" transform="translate(252,91)"/>
<path d="M0 0 C1.98 0.99 3.96 1.98 6 3 C5.01 3.495 5.01 3.495 4 4 C4 4.66 4 5.32 4 6 C2.35 6 0.7 6 -1 6 C-0.67 4.02 -0.34 2.04 0 0 Z " fill="#F6E9E5" transform="translate(217,62)"/>
<path d="M0 0 C1.35439668 2.70879335 1.06501451 5.00933268 1 8 C-1.53731364 6.73134318 -1.78646846 5.50290879 -3 3 C-3.66 2.34 -4.32 1.68 -5 1 C-3 0 -3 0 0 0 Z " fill="#F1EAE2" transform="translate(226,32)"/>
<path d="M0 0 C1.32 0 2.64 0 4 0 C4.33 0.66 4.66 1.32 5 2 C6.97888961 2.72693904 8.97954558 3.39816251 11 4 C10.67 4.99 10.34 5.98 10 7 C9.34 6.67 8.68 6.34 8 6 C8 5.34 8 4.68 8 4 C7.236875 3.896875 6.47375 3.79375 5.6875 3.6875 C2.82940576 2.95635961 1.84257115 2.23048087 0 0 Z " fill="#F6DAAD" transform="translate(144,154)"/>
<path d="M0 0 C0.33 0 0.66 0 1 0 C1.33 3.96 1.66 7.92 2 12 C1.67 10.68 1.34 9.36 1 8 C0.01 8 -0.98 8 -2 8 C-1.34 5.36 -0.68 2.72 0 0 Z " fill="#F1C175" transform="translate(158,104)"/>
<path d="M0 0 C0.66 0 1.32 0 2 0 C2.28875 0.61875 2.5775 1.2375 2.875 1.875 C3.93720042 4.13325765 3.93720042 4.13325765 6 6 C0.46153846 5.38461538 0.46153846 5.38461538 -1.875 3.4375 C-2.24625 2.963125 -2.6175 2.48875 -3 2 C-2.01 2 -1.02 2 0 2 C0 1.34 0 0.68 0 0 Z " fill="#FCF4E6" transform="translate(214,73)"/>
<path d="M0 0 C0 2.64 0 5.28 0 8 C-0.99 7.67 -1.98 7.34 -3 7 C-4.1875 3.9375 -4.1875 3.9375 -5 1 C-2 0 -2 0 0 0 Z " fill="#F3C788" transform="translate(208,224)"/>
<path d="M0 0 C-1.90401138 1.90401138 -3.33425686 2.93520439 -6.046875 3.19921875 C-8.03233273 3.1886578 -10.0169914 3.09915043 -12 3 C-8.61613364 -0.38386636 -4.56431325 -1.75550509 0 0 Z " fill="#ECC482" transform="translate(204,68)"/>
<path d="M0 0 C1.5625 1.75 1.5625 1.75 3 4 C2.6875 6.25 2.6875 6.25 2 8 C1.01 8 0.02 8 -1 8 C-0.67 5.36 -0.34 2.72 0 0 Z " fill="#F8F2E0" transform="translate(241,272)"/>
<path d="M0 0 C3 3.75 3 3.75 3 6 C2.34 6 1.68 6 1 6 C0.67 6.99 0.34 7.98 0 9 C-0.33 9 -0.66 9 -1 9 C-0.67 6.03 -0.34 3.06 0 0 Z " fill="#FCF8EB" transform="translate(129,220)"/>
<path d="M0 0 C3.36591866 1.44253657 5.51047079 3.33264727 8 6 C7.67 6.66 7.34 7.32 7 8 C6.5875 7.54625 6.175 7.0925 5.75 6.625 C3.93591905 4.94049626 2.24714373 4.00734029 0 3 C0 2.01 0 1.02 0 0 Z " fill="#FBEACE" transform="translate(168,135)"/>
<path d="M0 0 C2 3 2 3 2 6 C1.34 6 0.68 6 0 6 C-0.33 7.32 -0.66 8.64 -1 10 C-2.46726798 6.18510326 -1.43336419 3.70988378 0 0 Z " fill="#F5CE92" transform="translate(178,210)"/>
<path d="M0 0 C1.485 0.99 1.485 0.99 3 2 C3.1875 4.625 3.1875 4.625 3 7 C2.01 7 1.02 7 0 7 C0 4.69 0 2.38 0 0 Z " fill="#F4D6A5" transform="translate(149,172)"/>
<path d="M0 0 C0.99 0 1.98 0 3 0 C3 2.64 3 5.28 3 8 C2.34 8 1.68 8 1 8 C0.67 5.36 0.34 2.72 0 0 Z " fill="#F2C27D" transform="translate(255,88)"/>
<path d="M0 0 C0.33 0.66 0.66 1.32 1 2 C-0.65 3.65 -2.3 5.3 -4 7 C-4 4 -4 4 -2 1.8125 C-1.34 1.214375 -0.68 0.61625 0 0 Z " fill="#EDCC90" transform="translate(230,351)"/>
<path d="M0 0 C0.66 0 1.32 0 2 0 C2.33 0.99 2.66 1.98 3 3 C2.360625 3.103125 1.72125 3.20625 1.0625 3.3125 C0.381875 3.539375 -0.29875 3.76625 -1 4 C-1.33 4.99 -1.66 5.98 -2 7 C-2.66 7 -3.32 7 -4 7 C-2.92598892 4.08482708 -2.22189824 2.22189824 0 0 Z " fill="#F8EACF" transform="translate(212,152)"/>
<path d="M0 0 C1.32 0.33 2.64 0.66 4 1 C4 1.66 4 2.32 4 3 C4.99 3.33 5.98 3.66 7 4 C6.01 4.495 6.01 4.495 5 5 C2.375 4.0625 2.375 4.0625 0 3 C0 2.01 0 1.02 0 0 Z " fill="#F4D39B" transform="translate(336,147)"/>
<path d="M0 0 C2.31 0.33 4.62 0.66 7 1 C7 1.66 7 2.32 7 3 C4.69 2.67 2.38 2.34 0 2 C0 1.34 0 0.68 0 0 Z " fill="#F3D6A6" transform="translate(329,144)"/>
</svg>
